<mxfile host="Electron" agent="Mozilla/5.0 (Windows NT 10.0; Win64; x64) AppleWebKit/537.36 (KHTML, like Gecko) draw.io/26.0.9 Chrome/128.0.6613.186 Electron/32.2.5 Safari/537.36" version="26.0.9">
  <diagram name="Page-1" id="2YBvvXClWsGukQMizWep">
    <mxGraphModel dx="1142" dy="964" grid="0" gridSize="10" guides="1" tooltips="1" connect="1" arrows="1" fold="1" page="0" pageScale="1" pageWidth="850" pageHeight="1100" math="0" shadow="0">
      <root>
        <mxCell id="0" />
        <mxCell id="1" parent="0" />
        <mxCell id="C-bP0ChuSQqNqgb-DMGm-2" value="意思決定" style="shape=folder;fontStyle=1;spacingTop=10;tabWidth=40;tabHeight=14;tabPosition=left;html=1;whiteSpace=wrap;fillColor=light-dark(#CCFFCC,var(--ge-dark-color, #121212));fontSize=16;" parent="1" vertex="1">
          <mxGeometry x="310" y="-90" width="190" height="80" as="geometry" />
        </mxCell>
        <mxCell id="C-bP0ChuSQqNqgb-DMGm-3" value="記憶領域" style="shape=folder;fontStyle=1;spacingTop=10;tabWidth=40;tabHeight=14;tabPosition=left;html=1;whiteSpace=wrap;fillColor=light-dark(#FFFFCC,var(--ge-dark-color, #121212));fontSize=16;" parent="1" vertex="1">
          <mxGeometry x="386" y="89" width="190" height="80" as="geometry" />
        </mxCell>
        <mxCell id="C-bP0ChuSQqNqgb-DMGm-4" value="駆動" style="shape=folder;fontStyle=1;spacingTop=10;tabWidth=40;tabHeight=14;tabPosition=left;html=1;whiteSpace=wrap;fillColor=light-dark(#FFCCCC,var(--ge-dark-color, #121212));fontSize=16;" parent="1" vertex="1">
          <mxGeometry x="161" width="190" height="80" as="geometry" />
        </mxCell>
        <mxCell id="C-bP0ChuSQqNqgb-DMGm-5" value="知覚" style="shape=folder;fontStyle=1;spacingTop=10;tabWidth=40;tabHeight=14;tabPosition=left;html=1;whiteSpace=wrap;fillColor=light-dark(#CCFFFF,var(--ge-dark-color, #121212));fontSize=16;" parent="1" vertex="1">
          <mxGeometry x="443" width="190" height="80" as="geometry" />
        </mxCell>
        <mxCell id="C-bP0ChuSQqNqgb-DMGm-6" value="デバイス" style="shape=folder;fontStyle=1;spacingTop=10;tabWidth=40;tabHeight=14;tabPosition=left;html=1;whiteSpace=wrap;fillColor=light-dark(#E5CCFF,var(--ge-dark-color, #121212));fontSize=16;" parent="1" vertex="1">
          <mxGeometry x="310" y="192" width="190" height="80" as="geometry" />
        </mxCell>
        <mxCell id="jhjcq3Etw5Rlr6YPoClq-8" style="edgeStyle=orthogonalEdgeStyle;rounded=0;orthogonalLoop=1;jettySize=auto;html=1;fontSize=16;fontStyle=1;dashed=1;" parent="1" source="C-bP0ChuSQqNqgb-DMGm-4" target="C-bP0ChuSQqNqgb-DMGm-6" edge="1">
          <mxGeometry relative="1" as="geometry">
            <Array as="points">
              <mxPoint x="249" y="242" />
            </Array>
          </mxGeometry>
        </mxCell>
        <mxCell id="jhjcq3Etw5Rlr6YPoClq-9" style="edgeStyle=orthogonalEdgeStyle;rounded=0;orthogonalLoop=1;jettySize=auto;html=1;entryX=0.457;entryY=0.178;entryDx=0;entryDy=0;entryPerimeter=0;fontSize=16;fontStyle=1;dashed=1;" parent="1" source="C-bP0ChuSQqNqgb-DMGm-2" target="C-bP0ChuSQqNqgb-DMGm-4" edge="1">
          <mxGeometry relative="1" as="geometry">
            <Array as="points">
              <mxPoint x="248" y="-50" />
            </Array>
          </mxGeometry>
        </mxCell>
        <mxCell id="jhjcq3Etw5Rlr6YPoClq-13" style="edgeStyle=orthogonalEdgeStyle;rounded=0;orthogonalLoop=1;jettySize=auto;html=1;entryX=0;entryY=0;entryDx=20;entryDy=0;entryPerimeter=0;fontSize=16;fontStyle=1;dashed=1;" parent="1" source="C-bP0ChuSQqNqgb-DMGm-2" target="C-bP0ChuSQqNqgb-DMGm-3" edge="1">
          <mxGeometry relative="1" as="geometry">
            <Array as="points">
              <mxPoint x="406" y="29" />
              <mxPoint x="406" y="29" />
            </Array>
          </mxGeometry>
        </mxCell>
        <mxCell id="jhjcq3Etw5Rlr6YPoClq-15" style="edgeStyle=orthogonalEdgeStyle;rounded=0;orthogonalLoop=1;jettySize=auto;html=1;entryX=0.799;entryY=0.186;entryDx=0;entryDy=0;entryPerimeter=0;fontSize=16;fontStyle=1;dashed=1;" parent="1" source="C-bP0ChuSQqNqgb-DMGm-5" target="C-bP0ChuSQqNqgb-DMGm-3" edge="1">
          <mxGeometry relative="1" as="geometry" />
        </mxCell>
        <mxCell id="jhjcq3Etw5Rlr6YPoClq-18" style="edgeStyle=orthogonalEdgeStyle;rounded=0;orthogonalLoop=1;jettySize=auto;html=1;entryX=0;entryY=0;entryDx=190;entryDy=47;entryPerimeter=0;dashed=1;" parent="1" source="C-bP0ChuSQqNqgb-DMGm-5" target="C-bP0ChuSQqNqgb-DMGm-6" edge="1">
          <mxGeometry relative="1" as="geometry">
            <Array as="points">
              <mxPoint x="598" y="239" />
            </Array>
          </mxGeometry>
        </mxCell>
      </root>
    </mxGraphModel>
  </diagram>
</mxfile>
